<svg width="50" height="61" viewBox="0 0 50 61" fill="none" xmlns="http://www.w3.org/2000/svg">
<g filter="url(#filter0_dddd_254_171)">
<path d="M40.0674 4.76424C39.1369 3.817 37.7617 3.46411 36.4807 3.83557L6.60867 12.4722C5.25707 12.8455 4.30052 13.9172 4.04478 15.2786C3.78351 16.6642 4.70801 18.4231 5.91302 19.1586L15.2685 24.8662C15.4256 24.9619 15.59 25.0381 15.7588 25.095C16.621 25.3858 17.5945 25.1744 18.2566 24.5096L28.9386 13.8095C29.4762 13.2523 30.3678 13.2523 30.9075 13.8095C31.4472 14.3481 31.4488 15.221 30.9111 15.7782L20.2106 26.4802C19.4379 27.2524 19.2788 28.4438 19.8127 29.3906C19.8281 29.4166 19.8431 29.442 19.8575 29.4668L25.5844 38.8463C26.2552 39.9607 27.408 40.5922 28.6711 40.5922C28.8197 40.5922 28.9869 40.5922 29.1354 40.5736C30.584 40.3879 31.7339 39.4035 32.1586 38.0105L40.9655 8.34889C41.3533 7.08591 40.9979 5.71148 40.0674 4.76424Z" fill="white"/>
<path d="M18.2566 24.5096C17.5945 25.1744 16.621 25.3858 15.7588 25.095C17.5177 26.0441 19.1381 28.2552 19.8127 29.3906C19.2788 28.4438 19.4379 27.2524 20.2106 26.4802L30.9111 15.7782C31.4488 15.221 31.4472 14.3481 30.9075 13.8095C30.3678 13.2523 29.4762 13.2523 28.9386 13.8095L18.2566 24.5096Z" fill="white"/>
</g>
<defs>
<filter id="filter0_dddd_254_171" x="-3.74121" y="-1" width="56.6426" height="65.2822" filterUnits="userSpaceOnUse" color-interpolation-filters="sRGB">
<feFlood flood-opacity="0" result="BackgroundImageFix"/>
<feColorMatrix in="SourceAlpha" type="matrix" values="0 0 0 0 0 0 0 0 0 0 0 0 0 0 0 0 0 0 127 0" result="hardAlpha"/>
<feOffset dy="1"/>
<feGaussianBlur stdDeviation="1"/>
<feColorMatrix type="matrix" values="0 0 0 0 0.517647 0 0 0 0 0.0431373 0 0 0 0 0.501961 0 0 0 0.1 0"/>
<feBlend mode="normal" in2="BackgroundImageFix" result="effect1_dropShadow_254_171"/>
<feColorMatrix in="SourceAlpha" type="matrix" values="0 0 0 0 0 0 0 0 0 0 0 0 0 0 0 0 0 0 127 0" result="hardAlpha"/>
<feOffset dy="4"/>
<feGaussianBlur stdDeviation="2"/>
<feColorMatrix type="matrix" values="0 0 0 0 0.517647 0 0 0 0 0.0431373 0 0 0 0 0.501961 0 0 0 0.09 0"/>
<feBlend mode="normal" in2="effect1_dropShadow_254_171" result="effect2_dropShadow_254_171"/>
<feColorMatrix in="SourceAlpha" type="matrix" values="0 0 0 0 0 0 0 0 0 0 0 0 0 0 0 0 0 0 127 0" result="hardAlpha"/>
<feOffset dx="1" dy="8"/>
<feGaussianBlur stdDeviation="2.5"/>
<feColorMatrix type="matrix" values="0 0 0 0 0.517647 0 0 0 0 0.0431373 0 0 0 0 0.501961 0 0 0 0.05 0"/>
<feBlend mode="normal" in2="effect2_dropShadow_254_171" result="effect3_dropShadow_254_171"/>
<feColorMatrix in="SourceAlpha" type="matrix" values="0 0 0 0 0 0 0 0 0 0 0 0 0 0 0 0 0 0 127 0" result="hardAlpha"/>
<feOffset dx="2" dy="14"/>
<feGaussianBlur stdDeviation="3"/>
<feColorMatrix type="matrix" values="0 0 0 0 0.517647 0 0 0 0 0.0431373 0 0 0 0 0.501961 0 0 0 0.01 0"/>
<feBlend mode="normal" in2="effect3_dropShadow_254_171" result="effect4_dropShadow_254_171"/>
<feBlend mode="normal" in="SourceGraphic" in2="effect4_dropShadow_254_171" result="shape"/>
</filter>
</defs>
</svg>
