<svg width="81" height="81" viewBox="0 0 81 81" fill="none" xmlns="http://www.w3.org/2000/svg">
<g clip-path="url(#clip0_2073_13)">
<rect width="80.1525" height="80.1525" rx="11.591" fill="#78D6EA"/>
<g filter="url(#filter0_f_2073_13)">
<ellipse cx="52.5336" cy="66.8453" rx="32.3714" ry="26.7691" fill="#FFBD55"/>
</g>
<g filter="url(#filter1_f_2073_13)">
<ellipse cx="33.0764" cy="65.2172" rx="21.6564" ry="18.599" fill="#FF8F3F"/>
</g>
<g filter="url(#filter2_f_2073_13)">
<path d="M58.1363 0.99464C58.1363 15.7788 26.524 44.5096 11.7398 44.5096C-3.04435 44.5096 -15.0293 32.5247 -15.0293 17.7405C-15.0293 2.9563 -3.04435 -9.02864 11.7398 -9.02864C26.524 -9.02864 58.1363 -13.7895 58.1363 0.99464Z" fill="#7FD5DD"/>
</g>
<g filter="url(#filter3_f_2073_13)">
<path d="M28.1971 66.7061C34.2522 83.4242 36.284 100.599 22.3835 105.633C8.483 110.668 -7.69426 101.197 -13.7494 84.4787C-19.8046 67.7606 -19.2855 37.3655 -5.38495 32.3308C8.51555 27.2962 22.1419 49.988 28.1971 66.7061Z" fill="#FF5EA7"/>
</g>
<g filter="url(#filter4_f_2073_13)">
<ellipse cx="75.373" cy="29.5265" rx="26.7691" ry="27.9649" transform="rotate(-19.91 75.373 29.5265)" fill="#FF5EA7"/>
</g>
<g filter="url(#filter5_f_2073_13)">
<ellipse cx="71.0477" cy="-7.78692" rx="15.0524" ry="15.7247" transform="rotate(-19.91 71.0477 -7.78692)" fill="#C43BFF"/>
</g>
<path d="M20.8904 42.9792H18.318C18.271 42.6585 18.1751 42.3737 18.0302 42.1247C17.8854 41.8719 17.6994 41.6569 17.4723 41.4795C17.2452 41.3022 16.9829 41.1664 16.6853 41.0721C16.3916 40.9778 16.0725 40.9306 15.728 40.9306C15.1055 40.9306 14.5632 41.0796 14.1012 41.3777C13.6392 41.6719 13.2809 42.102 13.0264 42.6679C12.7719 43.2301 12.6447 43.9129 12.6447 44.7165C12.6447 45.5427 12.7719 46.2369 13.0264 46.7991C13.2848 47.3612 13.645 47.7856 14.107 48.0723C14.5691 48.3591 15.1035 48.5024 15.7104 48.5024C16.051 48.5024 16.3662 48.459 16.6559 48.3723C16.9496 48.2855 17.21 48.1591 17.437 47.9931C17.6641 47.8233 17.8521 47.6177 18.0009 47.3763C18.1536 47.1348 18.2593 46.8594 18.318 46.5501L20.8904 46.5614C20.8238 47.0933 20.6574 47.6064 20.3912 48.1006C20.1288 48.5911 19.7745 49.0306 19.3282 49.4192C18.8857 49.804 18.3572 50.1096 17.7424 50.336C17.1316 50.5586 16.4406 50.6698 15.6693 50.6698C14.5965 50.6698 13.6372 50.4359 12.7915 49.9681C11.9497 49.5003 11.2841 48.8231 10.7947 47.9365C10.3092 47.0499 10.0664 45.9766 10.0664 44.7165C10.0664 43.4527 10.3131 42.3774 10.8064 41.4909C11.2997 40.6043 11.9693 39.929 12.815 39.4649C13.6607 38.9971 14.6121 38.7632 15.6693 38.7632C16.3662 38.7632 17.0122 38.8575 17.6074 39.0461C18.2064 39.2348 18.7369 39.5102 19.199 39.8724C19.661 40.2308 20.0368 40.6703 20.3266 41.1909C20.6202 41.7116 20.8082 42.3076 20.8904 42.9792Z" fill="white"/>
<path d="M22.714 50.5114V38.9216H25.257V43.7035H30.4194V38.9216H32.9565V50.5114H30.4194V45.7238H25.257V50.5114H22.714Z" fill="white"/>
<path d="M35.0532 50.5114V38.9216H43.1579V40.9419H37.5962V43.7035H42.741V45.7238H37.5962V48.4911H43.1814V50.5114H35.0532Z" fill="white"/>
<path d="M55.7923 42.9792H53.2199C53.1729 42.6585 53.077 42.3737 52.9321 42.1247C52.7872 41.8719 52.6013 41.6569 52.3742 41.4795C52.1471 41.3022 51.8848 41.1664 51.5872 41.0721C51.2935 40.9778 50.9744 40.9306 50.6299 40.9306C50.0073 40.9306 49.4651 41.0796 49.0031 41.3777C48.541 41.6719 48.1828 42.102 47.9283 42.6679C47.6738 43.2301 47.5466 43.9129 47.5466 44.7165C47.5466 45.5427 47.6738 46.2369 47.9283 46.7991C48.1867 47.3612 48.5469 47.7856 49.0089 48.0723C49.4709 48.3591 50.0054 48.5024 50.6123 48.5024C50.9529 48.5024 51.2681 48.459 51.5578 48.3723C51.8515 48.2855 52.1118 48.1591 52.3389 47.9931C52.566 47.8233 52.754 47.6177 52.9027 47.3763C53.0554 47.1348 53.1612 46.8594 53.2199 46.5501L55.7923 46.5614C55.7257 47.0933 55.5593 47.6064 55.2931 48.1006C55.0307 48.5911 54.6764 49.0306 54.2301 49.4192C53.7876 49.804 53.259 50.1096 52.6443 50.336C52.0335 50.5586 51.3425 50.6698 50.5712 50.6698C49.4984 50.6698 48.5391 50.4359 47.6934 49.9681C46.8516 49.5003 46.186 48.8231 45.6965 47.9365C45.211 47.0499 44.9683 45.9766 44.9683 44.7165C44.9683 43.4527 45.215 42.3774 45.7083 41.4909C46.2016 40.6043 46.8712 39.929 47.7169 39.4649C48.5626 38.9971 49.514 38.7632 50.5712 38.7632C51.2681 38.7632 51.9141 38.8575 52.5093 39.0461C53.1083 39.2348 53.6388 39.5102 54.1008 39.8724C54.5629 40.2308 54.9387 40.6703 55.2285 41.1909C55.5221 41.7116 55.71 42.3076 55.7923 42.9792Z" fill="white"/>
<path d="M57.6158 50.5114V38.9216H60.1589V44.0318H60.3174L64.6459 38.9216H67.694L63.2305 44.111L67.7468 50.5114H64.7046L61.4098 45.7465L60.1589 47.2178V50.5114H57.6158Z" fill="white"/>
<path d="M10.2783 66.9008V54.9536H15.0237C15.936 54.9536 16.7132 55.1267 17.3553 55.4728C17.9974 55.815 18.4868 56.2915 18.8236 56.902C19.1642 57.5087 19.3345 58.2088 19.3345 59.0021C19.3345 59.7955 19.1622 60.4955 18.8177 61.1022C18.4731 61.7089 17.9739 62.1814 17.3201 62.5198C16.6701 62.8581 15.8831 63.0273 14.9591 63.0273H11.9345V61.0031H14.548C15.0374 61.0031 15.4407 60.9194 15.7578 60.7522C16.0789 60.5811 16.3177 60.3458 16.4744 60.0463C16.6349 59.743 16.7152 59.3949 16.7152 59.0021C16.7152 58.6054 16.6349 58.2593 16.4744 57.9637C16.3177 57.6643 16.0789 57.4329 15.7578 57.2696C15.4368 57.1023 15.0296 57.0187 14.5363 57.0187H12.8213V66.9008H10.2783Z" fill="white"/>
<path d="M21.6705 66.9008H18.9454L23.0977 54.9536H26.3748L30.5212 66.9008H27.7961L24.7832 57.6837H24.6892L21.6705 66.9008ZM21.5002 62.2048H27.937V64.1765H21.5002V62.2048Z" fill="white"/>
<path d="M30.0366 54.9536H32.885L35.6277 60.0988H35.7452L38.4879 54.9536H41.3363L36.9492 62.6773V66.9008H34.4238V62.6773L30.0366 54.9536Z" fill="white"/>
<path d="M10.5146 23.3469V14.1605C10.5146 12.5601 11.812 11.2627 13.4124 11.2627H23.3785" stroke="white" stroke-width="2.42113"/>
<path d="M70.7422 23.3469V13.428C70.7422 11.8276 69.4448 10.5303 67.8444 10.5303H57.0987" stroke="white" stroke-width="2.42113"/>
<path d="M70.7422 56.7406V66.6794C70.7422 68.2798 69.4448 69.5771 67.8444 69.5771H57.0775" stroke="white" stroke-width="2.42113"/>
</g>
<defs>
<filter id="filter0_f_2073_13" x="-8.81549" y="11.0986" width="122.698" height="111.493" filterUnits="userSpaceOnUse" color-interpolation-filters="sRGB">
<feFlood flood-opacity="0" result="BackgroundImageFix"/>
<feBlend mode="normal" in="SourceGraphic" in2="BackgroundImageFix" result="shape"/>
<feGaussianBlur stdDeviation="14.4888" result="effect1_foregroundBlur_2073_13"/>
</filter>
<filter id="filter1_f_2073_13" x="-17.5577" y="17.6406" width="101.268" height="95.1534" filterUnits="userSpaceOnUse" color-interpolation-filters="sRGB">
<feFlood flood-opacity="0" result="BackgroundImageFix"/>
<feBlend mode="normal" in="SourceGraphic" in2="BackgroundImageFix" result="shape"/>
<feGaussianBlur stdDeviation="14.4888" result="effect1_foregroundBlur_2073_13"/>
</filter>
<filter id="filter2_f_2073_13" x="-44.0069" y="-38.7369" width="131.121" height="112.224" filterUnits="userSpaceOnUse" color-interpolation-filters="sRGB">
<feFlood flood-opacity="0" result="BackgroundImageFix"/>
<feBlend mode="normal" in="SourceGraphic" in2="BackgroundImageFix" result="shape"/>
<feGaussianBlur stdDeviation="14.4888" result="effect1_foregroundBlur_2073_13"/>
</filter>
<filter id="filter3_f_2073_13" x="-46.4092" y="2.64008" width="108.229" height="133.322" filterUnits="userSpaceOnUse" color-interpolation-filters="sRGB">
<feFlood flood-opacity="0" result="BackgroundImageFix"/>
<feBlend mode="normal" in="SourceGraphic" in2="BackgroundImageFix" result="shape"/>
<feGaussianBlur stdDeviation="14.4888" result="effect1_foregroundBlur_2073_13"/>
</filter>
<filter id="filter4_f_2073_13" x="20.9264" y="-25.8388" width="108.893" height="110.73" filterUnits="userSpaceOnUse" color-interpolation-filters="sRGB">
<feFlood flood-opacity="0" result="BackgroundImageFix"/>
<feBlend mode="normal" in="SourceGraphic" in2="BackgroundImageFix" result="shape"/>
<feGaussianBlur stdDeviation="13.7644" result="effect1_foregroundBlur_2073_13"/>
</filter>
<filter id="filter5_f_2073_13" x="32.73" y="-46.6215" width="76.6357" height="77.6693" filterUnits="userSpaceOnUse" color-interpolation-filters="sRGB">
<feFlood flood-opacity="0" result="BackgroundImageFix"/>
<feBlend mode="normal" in="SourceGraphic" in2="BackgroundImageFix" result="shape"/>
<feGaussianBlur stdDeviation="11.591" result="effect1_foregroundBlur_2073_13"/>
</filter>
<clipPath id="clip0_2073_13">
<rect width="80.0215" height="80.0215" rx="11.591" fill="white"/>
</clipPath>
</defs>
</svg>
