<svg width="50" height="61" fill="none" xmlns="http://www.w3.org/2000/svg"><g filter="url(#a)" fill="#fff"><path d="M40.067 4.764a3.61 3.61 0 0 0-3.586-.928L6.609 12.472c-1.352.373-2.308 1.445-2.564 2.807-.261 1.385.663 3.144 1.868 3.88l9.355 5.707a2.43 2.43 0 0 0 2.988-.357l10.683-10.7a1.368 1.368 0 0 1 1.968 0c.54.54.542 1.412.004 1.97l-10.7 10.701a2.43 2.43 0 0 0-.353 2.987l5.726 9.38a3.56 3.56 0 0 0 3.087 1.745c.149 0 .316 0 .464-.018 1.449-.186 2.599-1.17 3.024-2.563l8.806-29.662c.388-1.263.033-2.638-.898-3.585Z"/><path d="M18.257 24.51a2.43 2.43 0 0 1-2.498.585c1.759.95 3.38 3.16 4.054 4.296a2.43 2.43 0 0 1 .398-2.91l10.7-10.703a1.401 1.401 0 0 0-.004-1.969 1.368 1.368 0 0 0-1.968 0l-10.682 10.7Z"/></g><defs><filter id="a" x="-3.741" y="-1" width="56.643" height="65.282" filterUnits="userSpaceOnUse" color-interpolation-filters="sRGB"><feFlood flood-opacity="0" result="BackgroundImageFix"/><feColorMatrix in="SourceAlpha" values="0 0 0 0 0 0 0 0 0 0 0 0 0 0 0 0 0 0 127 0" result="hardAlpha"/><feOffset dy="1"/><feGaussianBlur stdDeviation="1"/><feColorMatrix values="0 0 0 0 0.517647 0 0 0 0 0.0431373 0 0 0 0 0.501961 0 0 0 0.1 0"/><feBlend in2="BackgroundImageFix" result="effect1_dropShadow_254_171"/><feColorMatrix in="SourceAlpha" values="0 0 0 0 0 0 0 0 0 0 0 0 0 0 0 0 0 0 127 0" result="hardAlpha"/><feOffset dy="4"/><feGaussianBlur stdDeviation="2"/><feColorMatrix values="0 0 0 0 0.517647 0 0 0 0 0.0431373 0 0 0 0 0.501961 0 0 0 0.09 0"/><feBlend in2="effect1_dropShadow_254_171" result="effect2_dropShadow_254_171"/><feColorMatrix in="SourceAlpha" values="0 0 0 0 0 0 0 0 0 0 0 0 0 0 0 0 0 0 127 0" result="hardAlpha"/><feOffset dx="1" dy="8"/><feGaussianBlur stdDeviation="2.5"/><feColorMatrix values="0 0 0 0 0.517647 0 0 0 0 0.0431373 0 0 0 0 0.501961 0 0 0 0.05 0"/><feBlend in2="effect2_dropShadow_254_171" result="effect3_dropShadow_254_171"/><feColorMatrix in="SourceAlpha" values="0 0 0 0 0 0 0 0 0 0 0 0 0 0 0 0 0 0 127 0" result="hardAlpha"/><feOffset dx="2" dy="14"/><feGaussianBlur stdDeviation="3"/><feColorMatrix values="0 0 0 0 0.517647 0 0 0 0 0.0431373 0 0 0 0 0.501961 0 0 0 0.01 0"/><feBlend in2="effect3_dropShadow_254_171" result="effect4_dropShadow_254_171"/><feBlend in="SourceGraphic" in2="effect4_dropShadow_254_171" result="shape"/></filter></defs></svg>