<svg width="81" height="81" fill="none" xmlns="http://www.w3.org/2000/svg"><g clip-path="url(#a)"><rect width="80.153" height="80.153" rx="11.591" fill="#78D6EA"/><g filter="url(#b)"><ellipse cx="52.534" cy="66.845" rx="32.371" ry="26.769" fill="#FFBD55"/></g><g filter="url(#c)"><ellipse cx="33.076" cy="65.217" rx="21.656" ry="18.599" fill="#FF8F3F"/></g><g filter="url(#d)"><path d="M58.136.995c0 14.784-31.612 43.515-46.396 43.515-14.784 0-26.77-11.985-26.77-26.77 0-14.784 11.986-26.769 26.77-26.769 14.784 0 46.396-4.76 46.396 10.024Z" fill="#7FD5DD"/></g><g filter="url(#e)"><path d="M28.197 66.706c6.055 16.718 8.087 33.893-5.813 38.927-13.901 5.035-30.078-4.436-36.133-21.154-6.056-16.718-5.536-47.114 8.364-52.148 13.9-5.035 27.527 17.657 33.582 34.375Z" fill="#FF5EA7"/></g><g filter="url(#f)"><ellipse cx="75.373" cy="29.526" rx="26.769" ry="27.965" transform="rotate(-19.91 75.373 29.526)" fill="#FF5EA7"/></g><g filter="url(#g)"><ellipse cx="71.048" cy="-7.787" rx="15.052" ry="15.725" transform="rotate(-19.91 71.048 -7.787)" fill="#C43BFF"/></g><path d="M20.89 42.98h-2.572a2.363 2.363 0 0 0-.288-.855 2.195 2.195 0 0 0-.558-.645 2.486 2.486 0 0 0-.787-.408 3.116 3.116 0 0 0-.957-.141c-.623 0-1.165.149-1.627.447-.462.294-.82.724-1.075 1.29-.254.562-.381 1.245-.381 2.049 0 .826.127 1.52.381 2.082.259.562.619.987 1.081 1.273.462.287.997.43 1.603.43.341 0 .656-.043.946-.13.294-.087.554-.213.781-.379.227-.17.415-.375.564-.617a2.35 2.35 0 0 0 .317-.826l2.572.011a4.369 4.369 0 0 1-.499 1.54c-.262.49-.616.93-1.063 1.318-.442.385-.97.69-1.586.917-.61.223-1.301.334-2.073.334-1.072 0-2.032-.234-2.878-.702-.841-.468-1.507-1.145-1.996-2.032-.486-.886-.729-1.96-.729-3.22 0-1.263.247-2.339.74-3.225.494-.887 1.163-1.562 2.009-2.026.846-.468 1.797-.702 2.854-.702.697 0 1.343.095 1.938.283.6.189 1.13.464 1.592.826a4.29 4.29 0 0 1 1.128 1.319c.293.52.481 1.117.563 1.788Zm1.824 7.531v-11.59h2.543v4.782h5.162v-4.781h2.537v11.59H30.42v-4.788h-5.162v4.787h-2.543Zm12.339 0v-11.59h8.105v2.02h-5.562v2.762h5.145v2.02h-5.145v2.768h5.585v2.02h-8.128Zm20.739-7.531H53.22a2.363 2.363 0 0 0-.288-.855 2.196 2.196 0 0 0-.558-.645 2.486 2.486 0 0 0-.787-.408 3.116 3.116 0 0 0-.957-.141c-.623 0-1.165.149-1.627.447-.462.294-.82.724-1.075 1.29-.254.562-.381 1.245-.381 2.049 0 .826.127 1.52.381 2.082.259.562.619.987 1.08 1.273.463.287.997.43 1.604.43.34 0 .656-.043.946-.13.294-.087.554-.213.78-.379.228-.17.416-.375.565-.617a2.35 2.35 0 0 0 .317-.826l2.572.011a4.369 4.369 0 0 1-.499 1.54c-.262.49-.617.93-1.063 1.318-.442.385-.971.69-1.586.917-.61.223-1.301.334-2.073.334-1.073 0-2.032-.234-2.878-.702-.841-.468-1.507-1.145-1.996-2.032-.486-.886-.729-1.96-.729-3.22 0-1.263.247-2.339.74-3.225.494-.887 1.163-1.562 2.009-2.026.846-.468 1.797-.702 2.854-.702.697 0 1.343.095 1.938.283.6.189 1.13.464 1.592.826a4.29 4.29 0 0 1 1.127 1.319c.294.52.482 1.117.564 1.788Zm1.824 7.531v-11.59h2.543v5.11h.158l4.329-5.11h3.048l-4.464 5.19 4.517 6.4h-3.042l-3.295-4.765-1.251 1.472v3.293h-2.543ZM10.278 66.9V54.955h4.746c.912 0 1.69.173 2.331.519a3.53 3.53 0 0 1 1.469 1.429c.34.607.51 1.307.51 2.1 0 .793-.172 1.493-.516 2.1a3.555 3.555 0 0 1-1.498 1.418c-.65.338-1.437.507-2.36.507h-3.026v-2.024h2.614c.49 0 .893-.084 1.21-.25.32-.172.56-.407.716-.707.16-.303.241-.651.241-1.044 0-.397-.08-.743-.24-1.038a1.601 1.601 0 0 0-.717-.694c-.321-.168-.728-.251-1.222-.251h-1.715v9.88h-2.543Zm11.392 0h-2.725l4.153-11.946h3.277L30.52 66.9h-2.725l-3.013-9.217h-.094L21.671 66.9Zm-.17-4.695h6.437v1.972H21.5v-1.972Zm8.537-7.251h2.848l2.743 5.145h.117l2.743-5.145h2.848l-4.387 7.723v4.224h-2.525v-4.224l-4.387-7.723Z" fill="#fff"/><path d="M10.515 23.347V14.16c0-1.6 1.297-2.897 2.897-2.897h9.966m47.364 12.084v-9.919c0-1.6-1.297-2.898-2.898-2.898H57.1m13.642 46.21v9.94c0 1.6-1.297 2.897-2.898 2.897H57.078" stroke="#fff" stroke-width="2.421"/></g><defs><filter id="b" x="-8.815" y="11.099" width="122.698" height="111.493" filterUnits="userSpaceOnUse" color-interpolation-filters="sRGB"><feFlood flood-opacity="0" result="BackgroundImageFix"/><feBlend in="SourceGraphic" in2="BackgroundImageFix" result="shape"/><feGaussianBlur stdDeviation="14.489" result="effect1_foregroundBlur_2073_13"/></filter><filter id="c" x="-17.558" y="17.641" width="101.268" height="95.153" filterUnits="userSpaceOnUse" color-interpolation-filters="sRGB"><feFlood flood-opacity="0" result="BackgroundImageFix"/><feBlend in="SourceGraphic" in2="BackgroundImageFix" result="shape"/><feGaussianBlur stdDeviation="14.489" result="effect1_foregroundBlur_2073_13"/></filter><filter id="d" x="-44.007" y="-38.737" width="131.121" height="112.224" filterUnits="userSpaceOnUse" color-interpolation-filters="sRGB"><feFlood flood-opacity="0" result="BackgroundImageFix"/><feBlend in="SourceGraphic" in2="BackgroundImageFix" result="shape"/><feGaussianBlur stdDeviation="14.489" result="effect1_foregroundBlur_2073_13"/></filter><filter id="e" x="-46.409" y="2.64" width="108.229" height="133.322" filterUnits="userSpaceOnUse" color-interpolation-filters="sRGB"><feFlood flood-opacity="0" result="BackgroundImageFix"/><feBlend in="SourceGraphic" in2="BackgroundImageFix" result="shape"/><feGaussianBlur stdDeviation="14.489" result="effect1_foregroundBlur_2073_13"/></filter><filter id="f" x="20.926" y="-25.839" width="108.893" height="110.73" filterUnits="userSpaceOnUse" color-interpolation-filters="sRGB"><feFlood flood-opacity="0" result="BackgroundImageFix"/><feBlend in="SourceGraphic" in2="BackgroundImageFix" result="shape"/><feGaussianBlur stdDeviation="13.764" result="effect1_foregroundBlur_2073_13"/></filter><filter id="g" x="32.73" y="-46.621" width="76.636" height="77.669" filterUnits="userSpaceOnUse" color-interpolation-filters="sRGB"><feFlood flood-opacity="0" result="BackgroundImageFix"/><feBlend in="SourceGraphic" in2="BackgroundImageFix" result="shape"/><feGaussianBlur stdDeviation="11.591" result="effect1_foregroundBlur_2073_13"/></filter><clipPath id="a"><rect width="80.022" height="80.022" rx="11.591" fill="#fff"/></clipPath></defs></svg>